<svg width="102" height="27" viewBox="0 0 102 27" fill="none" xmlns="http://www.w3.org/2000/svg">
<rect x="3" y="3.5" width="20" height="20" rx="4" fill="white"/>
<rect x="1.5" y="2" width="23" height="23" rx="5.5" stroke="#83B3D3" stroke-width="3"/>
<path d="M40.53 7.4H47.37V8.732H42.024V12.512C42.228 12.476 42.48 12.44 42.78 12.404C43.08 12.368 43.368 12.35 43.644 12.35C44.256 12.35 44.838 12.41 45.39 12.53C45.942 12.638 46.428 12.83 46.848 13.106C47.268 13.382 47.598 13.76 47.838 14.24C48.09 14.708 48.216 15.302 48.216 16.022C48.216 16.742 48.09 17.366 47.838 17.894C47.586 18.41 47.25 18.836 46.83 19.172C46.41 19.496 45.918 19.742 45.354 19.91C44.802 20.066 44.22 20.144 43.608 20.144C43.404 20.144 43.17 20.138 42.906 20.126C42.654 20.126 42.384 20.114 42.096 20.09C41.82 20.066 41.544 20.036 41.268 20C41.004 19.976 40.758 19.934 40.53 19.874V7.4ZM43.788 18.848C44.172 18.848 44.538 18.794 44.886 18.686C45.234 18.578 45.534 18.422 45.786 18.218C46.05 18.002 46.254 17.732 46.398 17.408C46.554 17.084 46.632 16.706 46.632 16.274C46.632 15.722 46.542 15.278 46.362 14.942C46.194 14.594 45.966 14.324 45.678 14.132C45.39 13.94 45.054 13.814 44.67 13.754C44.298 13.682 43.908 13.646 43.5 13.646C43.392 13.646 43.266 13.652 43.122 13.664C42.978 13.676 42.834 13.688 42.69 13.7C42.546 13.712 42.414 13.73 42.294 13.754C42.174 13.766 42.084 13.778 42.024 13.79V18.74C42.108 18.764 42.216 18.782 42.348 18.794C42.492 18.806 42.642 18.818 42.798 18.83C42.966 18.842 43.134 18.848 43.302 18.848C43.47 18.848 43.632 18.848 43.788 18.848ZM50.1385 11.666C50.5945 11.39 51.1225 11.186 51.7225 11.054C52.3345 10.922 52.9705 10.856 53.6305 10.856C54.2545 10.856 54.7525 10.94 55.1245 11.108C55.5085 11.276 55.7965 11.498 55.9885 11.774C56.1925 12.038 56.3245 12.332 56.3845 12.656C56.4565 12.98 56.4925 13.304 56.4925 13.628C56.4925 14.348 56.4745 15.05 56.4385 15.734C56.4025 16.418 56.3845 17.066 56.3845 17.678C56.3845 18.122 56.4025 18.542 56.4385 18.938C56.4745 19.334 56.5405 19.7 56.6365 20.036H55.5745L55.1965 18.776H55.1065C54.9985 18.944 54.8605 19.112 54.6925 19.28C54.5365 19.436 54.3445 19.58 54.1165 19.712C53.8885 19.832 53.6245 19.934 53.3245 20.018C53.0245 20.102 52.6825 20.144 52.2985 20.144C51.9145 20.144 51.5545 20.084 51.2185 19.964C50.8945 19.844 50.6125 19.676 50.3725 19.46C50.1325 19.232 49.9405 18.962 49.7965 18.65C49.6645 18.338 49.5985 17.984 49.5985 17.588C49.5985 17.06 49.7065 16.622 49.9225 16.274C50.1385 15.914 50.4385 15.632 50.8225 15.428C51.2185 15.212 51.6865 15.062 52.2265 14.978C52.7785 14.882 53.3845 14.834 54.0445 14.834C54.2125 14.834 54.3745 14.834 54.5305 14.834C54.6985 14.834 54.8665 14.846 55.0345 14.87C55.0705 14.51 55.0885 14.186 55.0885 13.898C55.0885 13.238 54.9565 12.776 54.6925 12.512C54.4285 12.248 53.9485 12.116 53.2525 12.116C53.0485 12.116 52.8265 12.134 52.5865 12.17C52.3585 12.194 52.1185 12.236 51.8665 12.296C51.6265 12.344 51.3925 12.41 51.1645 12.494C50.9485 12.566 50.7565 12.65 50.5885 12.746L50.1385 11.666ZM52.6945 18.884C53.0305 18.884 53.3305 18.842 53.5945 18.758C53.8585 18.662 54.0865 18.548 54.2785 18.416C54.4705 18.272 54.6265 18.116 54.7465 17.948C54.8785 17.78 54.9745 17.618 55.0345 17.462V15.968C54.8665 15.956 54.6925 15.95 54.5125 15.95C54.3445 15.938 54.1765 15.932 54.0085 15.932C53.6365 15.932 53.2705 15.956 52.9105 16.004C52.5625 16.04 52.2505 16.118 51.9745 16.238C51.7105 16.346 51.4945 16.502 51.3265 16.706C51.1705 16.898 51.0925 17.144 51.0925 17.444C51.0925 17.864 51.2425 18.212 51.5425 18.488C51.8425 18.752 52.2265 18.884 52.6945 18.884ZM65.3502 19.406C64.9902 19.67 64.5642 19.868 64.0722 20C63.5802 20.144 63.0642 20.216 62.5242 20.216C61.8282 20.216 61.2402 20.108 60.7602 19.892C60.2802 19.664 59.8842 19.346 59.5722 18.938C59.2722 18.518 59.0502 18.02 58.9062 17.444C58.7742 16.856 58.7082 16.208 58.7082 15.5C58.7082 13.976 59.0442 12.812 59.7162 12.008C60.3882 11.192 61.3542 10.784 62.6142 10.784C63.1902 10.784 63.6762 10.832 64.0722 10.928C64.4802 11.012 64.8462 11.138 65.1702 11.306L64.7562 12.548C64.4802 12.392 64.1742 12.272 63.8382 12.188C63.5022 12.092 63.1422 12.044 62.7582 12.044C61.0542 12.044 60.2022 13.196 60.2022 15.5C60.2022 15.956 60.2442 16.394 60.3282 16.814C60.4242 17.222 60.5742 17.588 60.7782 17.912C60.9942 18.224 61.2702 18.476 61.6062 18.668C61.9542 18.86 62.3802 18.956 62.8842 18.956C63.3162 18.956 63.7002 18.89 64.0362 18.758C64.3842 18.626 64.6662 18.476 64.8822 18.308L65.3502 19.406ZM73.0494 19.406C72.6894 19.67 72.2634 19.868 71.7714 20C71.2794 20.144 70.7634 20.216 70.2234 20.216C69.5274 20.216 68.9394 20.108 68.4594 19.892C67.9794 19.664 67.5834 19.346 67.2714 18.938C66.9714 18.518 66.7494 18.02 66.6054 17.444C66.4734 16.856 66.4074 16.208 66.4074 15.5C66.4074 13.976 66.7434 12.812 67.4154 12.008C68.0874 11.192 69.0534 10.784 70.3134 10.784C70.8894 10.784 71.3754 10.832 71.7714 10.928C72.1794 11.012 72.5454 11.138 72.8694 11.306L72.4554 12.548C72.1794 12.392 71.8734 12.272 71.5374 12.188C71.2014 12.092 70.8414 12.044 70.4574 12.044C68.7534 12.044 67.9014 13.196 67.9014 15.5C67.9014 15.956 67.9434 16.394 68.0274 16.814C68.1234 17.222 68.2734 17.588 68.4774 17.912C68.6934 18.224 68.9694 18.476 69.3054 18.668C69.6534 18.86 70.0794 18.956 70.5834 18.956C71.0154 18.956 71.3994 18.89 71.7354 18.758C72.0834 18.626 72.3654 18.476 72.5814 18.308L73.0494 19.406ZM81.1806 19.28C80.8206 19.568 80.3646 19.796 79.8126 19.964C79.2726 20.132 78.6966 20.216 78.0846 20.216C77.4006 20.216 76.8066 20.108 76.3026 19.892C75.7986 19.664 75.3846 19.346 75.0606 18.938C74.7366 18.518 74.4966 18.02 74.3406 17.444C74.1846 16.868 74.1066 16.22 74.1066 15.5C74.1066 13.964 74.4486 12.794 75.1326 11.99C75.8166 11.186 76.7946 10.784 78.0666 10.784C78.4746 10.784 78.8826 10.832 79.2906 10.928C79.6986 11.012 80.0646 11.18 80.3886 11.432C80.7126 11.684 80.9766 12.044 81.1806 12.512C81.3846 12.968 81.4866 13.574 81.4866 14.33C81.4866 14.726 81.4506 15.164 81.3786 15.644H75.6006C75.6006 16.172 75.6546 16.64 75.7626 17.048C75.8706 17.456 76.0386 17.804 76.2666 18.092C76.4946 18.368 76.7886 18.584 77.1486 18.74C77.5206 18.884 77.9706 18.956 78.4986 18.956C78.9066 18.956 79.3146 18.884 79.7226 18.74C80.1306 18.596 80.4366 18.428 80.6406 18.236L81.1806 19.28ZM78.0846 12.044C77.3766 12.044 76.8066 12.23 76.3746 12.602C75.9546 12.974 75.7026 13.61 75.6186 14.51H80.0826C80.0826 13.598 79.9086 12.962 79.5606 12.602C79.2126 12.23 78.7206 12.044 78.0846 12.044ZM89.3672 14.672L89.4212 13.556H89.3672L88.6292 14.708L84.5792 20H83.7512V11H85.1912V16.49L85.1372 17.552H85.2092L85.9112 16.436L89.9612 11H90.8072V20H89.3672V14.672ZM85.8212 7.364C85.9412 7.916 86.1452 8.3 86.4332 8.516C86.7332 8.732 87.0752 8.84 87.4592 8.84C87.8432 8.84 88.1852 8.726 88.4852 8.498C88.7852 8.27 88.9892 7.898 89.0972 7.382L90.1772 7.724C90.0692 8.42 89.7572 8.954 89.2412 9.326C88.7372 9.698 88.1312 9.884 87.4232 9.884C87.0992 9.884 86.7752 9.842 86.4512 9.758C86.1392 9.674 85.8572 9.548 85.6052 9.38C85.3532 9.212 85.1372 8.996 84.9572 8.732C84.7772 8.468 84.6572 8.156 84.5972 7.796L85.8212 7.364ZM99.0854 16.022H95.0174V20H93.5774V11H95.0174V14.762H99.0854V11H100.525V20H99.0854V16.022Z" fill="white"/>
</svg>
