<svg width="93" height="23" viewBox="0 0 93 23" fill="none" xmlns="http://www.w3.org/2000/svg">
<circle cx="10" cy="11.5" r="10" fill="white"/>
<path d="M5 11.5C5 8.73858 7.23858 6.5 10 6.5C12.7614 6.5 15 8.73858 15 11.5C15 14.2614 12.7614 16.5 10 16.5C7.23858 16.5 5 14.2614 5 11.5Z" fill="#3F5E72"/>
<path d="M47.214 9.54L47.394 7.65H47.304L46.62 9.378L43.344 15.066H42.894L39.42 9.36L38.772 7.65H38.682L38.934 9.522V18H37.53V5.4H38.646L42.588 11.844L43.182 13.248H43.218L43.776 11.808L47.538 5.4H48.708V18H47.214V9.54ZM51.1203 13.5C51.1203 11.976 51.4563 10.812 52.1283 10.008C52.8123 9.192 53.7903 8.784 55.0623 8.784C55.7343 8.784 56.3163 8.898 56.8083 9.126C57.3123 9.342 57.7263 9.66 58.0503 10.08C58.3743 10.488 58.6143 10.986 58.7703 11.574C58.9263 12.15 59.0043 12.792 59.0043 13.5C59.0043 15.024 58.6623 16.194 57.9783 17.01C57.3063 17.814 56.3343 18.216 55.0623 18.216C54.3903 18.216 53.8023 18.108 53.2983 17.892C52.8063 17.664 52.3983 17.346 52.0743 16.938C51.7503 16.518 51.5103 16.02 51.3543 15.444C51.1983 14.856 51.1203 14.208 51.1203 13.5ZM52.6143 13.5C52.6143 13.956 52.6563 14.394 52.7403 14.814C52.8363 15.234 52.9803 15.6 53.1723 15.912C53.3643 16.224 53.6163 16.476 53.9283 16.668C54.2403 16.86 54.6183 16.956 55.0623 16.956C56.6943 16.968 57.5103 15.816 57.5103 13.5C57.5103 13.032 57.4623 12.588 57.3663 12.168C57.2823 11.748 57.1443 11.382 56.9523 11.07C56.7603 10.758 56.5083 10.512 56.1963 10.332C55.8843 10.14 55.5063 10.044 55.0623 10.044C53.4303 10.032 52.6143 11.184 52.6143 13.5ZM66.7354 10.26H63.9094V18H62.4694V10.26H59.6434V9H66.7354V10.26ZM74.454 17.28C74.094 17.568 73.638 17.796 73.086 17.964C72.546 18.132 71.97 18.216 71.358 18.216C70.674 18.216 70.08 18.108 69.576 17.892C69.072 17.664 68.658 17.346 68.334 16.938C68.01 16.518 67.77 16.02 67.614 15.444C67.458 14.868 67.38 14.22 67.38 13.5C67.38 11.964 67.722 10.794 68.406 9.99C69.09 9.186 70.068 8.784 71.34 8.784C71.748 8.784 72.156 8.832 72.564 8.928C72.972 9.012 73.338 9.18 73.662 9.432C73.986 9.684 74.25 10.044 74.454 10.512C74.658 10.968 74.76 11.574 74.76 12.33C74.76 12.726 74.724 13.164 74.652 13.644H68.874C68.874 14.172 68.928 14.64 69.036 15.048C69.144 15.456 69.312 15.804 69.54 16.092C69.768 16.368 70.062 16.584 70.422 16.74C70.794 16.884 71.244 16.956 71.772 16.956C72.18 16.956 72.588 16.884 72.996 16.74C73.404 16.596 73.71 16.428 73.914 16.236L74.454 17.28ZM71.358 10.044C70.65 10.044 70.08 10.23 69.648 10.602C69.228 10.974 68.976 11.61 68.892 12.51H73.356C73.356 11.598 73.182 10.962 72.834 10.602C72.486 10.23 71.994 10.044 71.358 10.044ZM81.4624 10.26H78.8524C78.8164 10.764 78.7804 11.31 78.7444 11.898C78.7084 12.474 78.6544 13.056 78.5824 13.644C78.5104 14.22 78.4144 14.778 78.2944 15.318C78.1744 15.846 78.0184 16.314 77.8264 16.722C77.6464 17.13 77.4184 17.46 77.1424 17.712C76.8784 17.952 76.5604 18.072 76.1884 18.072C75.9604 18.072 75.7624 18.06 75.5944 18.036C75.4264 18.012 75.2764 17.97 75.1444 17.91L75.3604 16.704C75.5044 16.752 75.6604 16.776 75.8284 16.776C76.0684 16.776 76.2844 16.674 76.4764 16.47C76.6684 16.266 76.8364 15.882 76.9804 15.318C77.1244 14.742 77.2444 13.95 77.3404 12.942C77.4364 11.934 77.5024 10.62 77.5384 9H82.9024V18H81.4624V10.26ZM87.1131 16.74C87.5571 16.812 87.9831 16.848 88.3911 16.848C89.1471 16.848 89.7051 16.704 90.0651 16.416C90.4251 16.116 90.6051 15.696 90.6051 15.156C90.6051 14.676 90.4311 14.28 90.0831 13.968C89.7351 13.656 89.1891 13.5 88.4451 13.5C88.2411 13.5 88.0191 13.506 87.7791 13.518C87.5391 13.53 87.3171 13.566 87.1131 13.626V16.74ZM87.1131 12.438C87.4011 12.39 87.6771 12.36 87.9411 12.348C88.2051 12.324 88.4571 12.312 88.6971 12.312C89.3211 12.312 89.8491 12.384 90.2811 12.528C90.7131 12.66 91.0611 12.846 91.3251 13.086C91.6011 13.326 91.7991 13.614 91.9191 13.95C92.0391 14.274 92.0991 14.622 92.0991 14.994C92.0991 16.086 91.7691 16.878 91.1091 17.37C90.4611 17.862 89.4471 18.108 88.0671 18.108C87.2991 18.108 86.5011 18.072 85.6731 18V9H87.1131V12.438Z" fill="white"/>
</svg>
