<svg width="96" height="27" viewBox="0 0 96 27" fill="none" xmlns="http://www.w3.org/2000/svg">
<circle cx="13" cy="13.5" r="10" fill="white"/>
<path d="M8 13.5C8 10.7386 10.2386 8.5 13 8.5C15.7614 8.5 18 10.7386 18 13.5C18 16.2614 15.7614 18.5 13 18.5C10.2386 18.5 8 16.2614 8 13.5Z" fill="#3F5E72"/>
<rect x="1.5" y="2" width="23" height="23" rx="11.5" stroke="#83B3D3" stroke-width="3"/>
<path d="M50.214 11.54L50.394 9.65H50.304L49.62 11.378L46.344 17.066H45.894L42.42 11.36L41.772 9.65H41.682L41.934 11.522V20H40.53V7.4H41.646L45.588 13.844L46.182 15.248H46.218L46.776 13.808L50.538 7.4H51.708V20H50.214V11.54ZM54.1203 15.5C54.1203 13.976 54.4563 12.812 55.1283 12.008C55.8123 11.192 56.7903 10.784 58.0623 10.784C58.7343 10.784 59.3163 10.898 59.8083 11.126C60.3123 11.342 60.7263 11.66 61.0503 12.08C61.3743 12.488 61.6143 12.986 61.7703 13.574C61.9263 14.15 62.0043 14.792 62.0043 15.5C62.0043 17.024 61.6623 18.194 60.9783 19.01C60.3063 19.814 59.3343 20.216 58.0623 20.216C57.3903 20.216 56.8023 20.108 56.2983 19.892C55.8063 19.664 55.3983 19.346 55.0743 18.938C54.7503 18.518 54.5103 18.02 54.3543 17.444C54.1983 16.856 54.1203 16.208 54.1203 15.5ZM55.6143 15.5C55.6143 15.956 55.6563 16.394 55.7403 16.814C55.8363 17.234 55.9803 17.6 56.1723 17.912C56.3643 18.224 56.6163 18.476 56.9283 18.668C57.2403 18.86 57.6183 18.956 58.0623 18.956C59.6943 18.968 60.5103 17.816 60.5103 15.5C60.5103 15.032 60.4623 14.588 60.3663 14.168C60.2823 13.748 60.1443 13.382 59.9523 13.07C59.7603 12.758 59.5083 12.512 59.1963 12.332C58.8843 12.14 58.5063 12.044 58.0623 12.044C56.4303 12.032 55.6143 13.184 55.6143 15.5ZM69.7354 12.26H66.9094V20H65.4694V12.26H62.6434V11H69.7354V12.26ZM77.454 19.28C77.094 19.568 76.638 19.796 76.086 19.964C75.546 20.132 74.97 20.216 74.358 20.216C73.674 20.216 73.08 20.108 72.576 19.892C72.072 19.664 71.658 19.346 71.334 18.938C71.01 18.518 70.77 18.02 70.614 17.444C70.458 16.868 70.38 16.22 70.38 15.5C70.38 13.964 70.722 12.794 71.406 11.99C72.09 11.186 73.068 10.784 74.34 10.784C74.748 10.784 75.156 10.832 75.564 10.928C75.972 11.012 76.338 11.18 76.662 11.432C76.986 11.684 77.25 12.044 77.454 12.512C77.658 12.968 77.76 13.574 77.76 14.33C77.76 14.726 77.724 15.164 77.652 15.644H71.874C71.874 16.172 71.928 16.64 72.036 17.048C72.144 17.456 72.312 17.804 72.54 18.092C72.768 18.368 73.062 18.584 73.422 18.74C73.794 18.884 74.244 18.956 74.772 18.956C75.18 18.956 75.588 18.884 75.996 18.74C76.404 18.596 76.71 18.428 76.914 18.236L77.454 19.28ZM74.358 12.044C73.65 12.044 73.08 12.23 72.648 12.602C72.228 12.974 71.976 13.61 71.892 14.51H76.356C76.356 13.598 76.182 12.962 75.834 12.602C75.486 12.23 74.994 12.044 74.358 12.044ZM84.4624 12.26H81.8524C81.8164 12.764 81.7804 13.31 81.7444 13.898C81.7084 14.474 81.6544 15.056 81.5824 15.644C81.5104 16.22 81.4144 16.778 81.2944 17.318C81.1744 17.846 81.0184 18.314 80.8264 18.722C80.6464 19.13 80.4184 19.46 80.1424 19.712C79.8784 19.952 79.5604 20.072 79.1884 20.072C78.9604 20.072 78.7624 20.06 78.5944 20.036C78.4264 20.012 78.2764 19.97 78.1444 19.91L78.3604 18.704C78.5044 18.752 78.6604 18.776 78.8284 18.776C79.0684 18.776 79.2844 18.674 79.4764 18.47C79.6684 18.266 79.8364 17.882 79.9804 17.318C80.1244 16.742 80.2444 15.95 80.3404 14.942C80.4364 13.934 80.5024 12.62 80.5384 11H85.9024V20H84.4624V12.26ZM90.1131 18.74C90.5571 18.812 90.9831 18.848 91.3911 18.848C92.1471 18.848 92.7051 18.704 93.0651 18.416C93.4251 18.116 93.6051 17.696 93.6051 17.156C93.6051 16.676 93.4311 16.28 93.0831 15.968C92.7351 15.656 92.1891 15.5 91.4451 15.5C91.2411 15.5 91.0191 15.506 90.7791 15.518C90.5391 15.53 90.3171 15.566 90.1131 15.626V18.74ZM90.1131 14.438C90.4011 14.39 90.6771 14.36 90.9411 14.348C91.2051 14.324 91.4571 14.312 91.6971 14.312C92.3211 14.312 92.8491 14.384 93.2811 14.528C93.7131 14.66 94.0611 14.846 94.3251 15.086C94.6011 15.326 94.7991 15.614 94.9191 15.95C95.0391 16.274 95.0991 16.622 95.0991 16.994C95.0991 18.086 94.7691 18.878 94.1091 19.37C93.4611 19.862 92.4471 20.108 91.0671 20.108C90.2991 20.108 89.5011 20.072 88.6731 20V11H90.1131V14.438Z" fill="white"/>
</svg>
